<svg width="0" height="0" class="hidden">
  <symbol version="1.1" xmlns="http://www.w3.org/2000/svg" xmlns:xlink="http://www.w3.org/1999/xlink" viewBox="0 -2 20 20" id="twitter">
    <g id="Page-1" stroke="none" stroke-width="1" fill="currentColor" fill-rule="evenodd">
      <g id="Dribbble-Light-Preview" transform="translate(-60.000000, -7521.000000)" fill="currentColor">
        <g id="icons" transform="translate(56.000000, 160.000000)">
          <path d="M10.29,7377 C17.837,7377 21.965,7370.84365 21.965,7365.50546 C21.965,7365.33021 21.965,7365.15595 21.953,7364.98267 C22.756,7364.41163 23.449,7363.70276 24,7362.8915 C23.252,7363.21837 22.457,7363.433 21.644,7363.52751 C22.5,7363.02244 23.141,7362.2289 23.448,7361.2926 C22.642,7361.76321 21.761,7362.095 20.842,7362.27321 C19.288,7360.64674 16.689,7360.56798 15.036,7362.09796 C13.971,7363.08447 13.518,7364.55538 13.849,7365.95835 C10.55,7365.79492 7.476,7364.261 5.392,7361.73762 C4.303,7363.58363 4.86,7365.94457 6.663,7367.12996 C6.01,7367.11125 5.371,7366.93797 4.8,7366.62489 L4.8,7366.67608 C4.801,7368.5989 6.178,7370.2549 8.092,7370.63591 C7.488,7370.79836 6.854,7370.82199 6.24,7370.70483 C6.777,7372.35099 8.318,7373.47829 10.073,7373.51078 C8.62,7374.63513 6.825,7375.24554 4.977,7375.24358 C4.651,7375.24259 4.325,7375.22388 4,7375.18549 C5.877,7376.37088 8.06,7377 10.29,7376.99705" id="twitter-[#154]"></path>
        </g>
      </g>
    </g>
  </symbol>
  <symbol fill="currentColor" version="1.1" xmlns="http://www.w3.org/2000/svg" xmlns:xlink="http://www.w3.org/1999/xlink" enable-background="new 0 0 512 512" xml:space="preserve" viewBox="0 0 512 512" id="instagram">
    <g id="5151e0c8492e5103c096af88a50059a5">
      <path display="inline" fill-rule="evenodd" clip-rule="evenodd" d="M66.084,0.5h379.819c36.079,0,65.597,29.505,65.597,65.584
		v379.819c0,36.079-29.518,65.597-65.597,65.597H66.084C30.005,511.5,0.5,481.982,0.5,445.903V66.084
		C0.5,30.005,30.005,0.5,66.084,0.5L66.084,0.5z M372.734,57.264c-12.65,0-23.005,10.355-23.005,23.005v55.067
		c0,12.65,10.354,23.005,23.005,23.005h57.762c12.65,0,23.005-10.354,23.005-23.005V80.269c0-12.65-10.354-23.005-23.005-23.005
		H372.734L372.734,57.264z M453.738,216.59h-44.975c4.254,13.897,6.55,28.606,6.55,43.852c0,84.996-71.111,153.898-158.839,153.898
		c-87.716,0-158.827-68.902-158.827-153.898c0-15.245,2.295-29.954,6.55-43.852H57.276v215.853c0,11.178,9.132,20.322,20.311,20.322
		h355.841c11.166,0,20.311-9.145,20.311-20.322V216.59L453.738,216.59z M256.475,155.447c-56.677,0-102.625,44.525-102.625,99.443
		s45.948,99.443,102.625,99.443c56.688,0,102.636-44.525,102.636-99.443S313.163,155.447,256.475,155.447z"></path>
    </g>
  </symbol>
  <symbol fill="currentColor" version="1.1" xmlns="http://www.w3.org/2000/svg" viewBox="0 0 32 32" id="git">
    <path d="M30.428 14.663l-13.095-13.094c-0.35-0.349-0.833-0.565-1.367-0.565s-1.017 0.216-1.367 0.565l0-0-2.713 2.718 3.449 3.449c0.22-0.077 0.473-0.121 0.737-0.121 1.269 0 2.297 1.028 2.297 2.297 0 0.269-0.046 0.526-0.131 0.766l0.005-0.016 3.322 3.324c0.222-0.079 0.479-0.125 0.746-0.125 1.268 0 2.296 1.028 2.296 2.296s-1.028 2.296-2.296 2.296c-1.268 0-2.296-1.028-2.296-2.296 0-0.313 0.063-0.611 0.176-0.883l-0.006 0.015-3.11-3.094v8.154c0.764 0.385 1.279 1.163 1.279 2.061 0 1.27-1.030 2.3-2.3 2.3s-2.3-1.030-2.3-2.3c0-0.634 0.256-1.207 0.671-1.623l-0 0c0.211-0.211 0.462-0.382 0.741-0.502l0.015-0.006v-8.234c-0.842-0.354-1.422-1.173-1.422-2.126 0-0.32 0.065-0.624 0.183-0.901l-0.006 0.015-3.389-3.405-8.98 8.974c-0.348 0.351-0.562 0.834-0.562 1.368s0.215 1.017 0.563 1.368l13.096 13.092c0.349 0.35 0.832 0.566 1.366 0.566s1.016-0.216 1.366-0.566l13.034-13.034c0.35-0.349 0.567-0.833 0.567-1.366s-0.217-1.017-0.567-1.366l-0-0z"></path>
  </symbol>

  <symbol viewBox="0 0 48 48" xmlns="http://www.w3.org/2000/svg" id="github">
  <g id="Layer_2" data-name="Layer 2">
    <g id="invisible_box" data-name="invisible box">
      <rect width="48" height="48" fill="none"/>
      <rect width="48" height="48" fill="none"/>
    </g>
    <g id="icons_Q2" data-name="icons Q2">
      <path fill="currentColor" d="M24,1.9a21.6,21.6,0,0,0-6.8,42.2c1,.2,1.8-.9,1.8-1.8V39.4c-6,1.3-7.9-2.9-7.9-2.9a6.5,6.5,0,0,0-2.2-3.2C6.9,31.9,9,32,9,32a4.3,4.3,0,0,1,3.3,2c1.7,2.9,5.5,2.6,6.7,2.1a5.4,5.4,0,0,1,.5-2.9C12.7,32,9,28,9,22.6A10.7,10.7,0,0,1,11.9,15a6.2,6.2,0,0,1,.3-6.4,8.9,8.9,0,0,1,6.4,2.9,15.1,15.1,0,0,1,5.4-.8,17.1,17.1,0,0,1,5.4.7,9,9,0,0,1,6.4-2.8,6.5,6.5,0,0,1,.4,6.4A10.7,10.7,0,0,1,39,22.6C39,28,35.3,32,28.5,33.2a5.4,5.4,0,0,1,.5,2.9v6.2a1.8,1.8,0,0,0,1.9,1.8A21.7,21.7,0,0,0,24,1.9Z"/>
    </g>
  </g>
</symbol>

<symbol viewBox="0 0 20 20" version="1.1" xmlns="http://www.w3.org/2000/svg" xmlns:xlink="http://www.w3.org/1999/xlink" id="linkedin">
    <g id="Page-1" stroke="none" stroke-width="1" fill="none" fill-rule="evenodd">
        <g id="Dribbble-Light-Preview" transform="translate(-180.000000, -7479.000000)" fill="currentColor">
            <g id="icons" transform="translate(56.000000, 160.000000)">
                <path d="M144,7339 L140,7339 L140,7332.001 C140,7330.081 139.153,7329.01 137.634,7329.01 C135.981,7329.01 135,7330.126 135,7332.001 L135,7339 L131,7339 L131,7326 L135,7326 L135,7327.462 C135,7327.462 136.255,7325.26 139.083,7325.26 C141.912,7325.26 144,7326.986 144,7330.558 L144,7339 L144,7339 Z M126.442,7323.921 C125.093,7323.921 124,7322.819 124,7321.46 C124,7320.102 125.093,7319 126.442,7319 C127.79,7319 128.883,7320.102 128.883,7321.46 C128.884,7322.819 127.79,7323.921 126.442,7323.921 L126.442,7323.921 Z M124,7339 L129,7339 L129,7326 L124,7326 L124,7339 Z" id="linkedin-[#161]">

</path>
            </g>
        </g>
    </g>
</symbol>
<symbol fill="currentColor" viewBox="0 0 1920 1920" xmlns="http://www.w3.org/2000/svg" id="email">
    <path d="M0 1694.235h1920V226H0v1468.235ZM112.941 376.664V338.94H1807.06v37.723L960 1111.233l-847.059-734.57ZM1807.06 526.198v950.513l-351.134-438.89-88.32 70.475 378.353 472.998H174.042l378.353-472.998-88.32-70.475-351.134 438.89V526.198L960 1260.768l847.059-734.57Z" fill-rule="evenodd"/>
</symbol>

<symbol viewBox="0 0 32 32" xmlns="http://www.w3.org/2000/svg" id="sql">
  <path d="M8.562,15.256A21.159,21.159,0,0,0,16,16.449a21.159,21.159,0,0,0,7.438-1.194c1.864-.727,2.525-1.535,2.525-2V9.7a10.357,10.357,0,0,1-2.084,1.076A22.293,22.293,0,0,1,16,12.078a22.36,22.36,0,0,1-7.879-1.3A10.28,10.28,0,0,1,6.037,9.7v3.55C6.037,13.724,6.7,14.528,8.562,15.256Z" style="fill:#ffda44"/>
  <path d="M8.562,21.961a15.611,15.611,0,0,0,2.6.741A24.9,24.9,0,0,0,16,23.155a24.9,24.9,0,0,0,4.838-.452,15.614,15.614,0,0,0,2.6-.741c1.864-.727,2.525-1.535,2.525-2v-3.39a10.706,10.706,0,0,1-1.692.825A23.49,23.49,0,0,1,16,18.74a23.49,23.49,0,0,1-8.271-1.348,10.829,10.829,0,0,1-1.692-.825V19.96C6.037,20.426,6.7,21.231,8.562,21.961Z" style="fill:#ffda44"/>
  <path d="M16,30c5.5,0,9.963-1.744,9.963-3.894V23.269a10.5,10.5,0,0,1-1.535.762l-.157.063A23.487,23.487,0,0,1,16,25.445a23.422,23.422,0,0,1-8.271-1.351c-.054-.02-.106-.043-.157-.063a10.5,10.5,0,0,1-1.535-.762v2.837C6.037,28.256,10.5,30,16,30Z" style="fill:#ffda44"/>
  <ellipse cx="16" cy="5.894" rx="9.963" ry="3.894" style="fill:#ffda44"/>
</symbol>

<symbol viewBox="0 0 24 24" fill="none" xmlns="http://www.w3.org/2000/svg" id="git">
<path fill-rule="evenodd" clip-rule="evenodd" d="M13.4142 3.82843C12.6332 3.04738 11.3668 3.04738 10.5858 3.82843L9.91421 4.5L11.482 6.06774C11.6472 6.02356 11.8208 6 12 6C13.1046 6 14 6.89543 14 8C14 8.17916 13.9764 8.35282 13.9323 8.51804L15.982 10.5677C16.1472 10.5236 16.3208 10.5 16.5 10.5C17.6046 10.5 18.5 11.3954 18.5 12.5C18.5 13.6046 17.6046 14.5 16.5 14.5C15.3954 14.5 14.5 13.6046 14.5 12.5C14.5 12.3208 14.5236 12.1472 14.5677 11.982L13 10.4142V15.2676C13.5978 15.6134 14 16.2597 14 17C14 18.1046 13.1046 19 12 19C10.8954 19 10 18.1046 10 17C10 16.2597 10.4022 15.6134 11 15.2676V9.73244C10.4022 9.38663 10 8.74028 10 8C10 7.82084 10.0236 7.64718 10.0677 7.48196L8.5 5.91421L3.82843 10.5858C3.04738 11.3668 3.04738 12.6332 3.82843 13.4142L10.5858 20.1716C11.3668 20.9526 12.6332 20.9526 13.4142 20.1716L20.1716 13.4142C20.9526 12.6332 20.9526 11.3668 20.1716 10.5858L13.4142 3.82843ZM9.17157 2.41421C10.7337 0.852115 13.2663 0.852119 14.8284 2.41422L21.5858 9.17157C23.1479 10.7337 23.1479 13.2663 21.5858 14.8284L14.8284 21.5858C13.2663 23.1479 10.7337 23.1479 9.17157 21.5858L2.41421 14.8284C0.852115 13.2663 0.852119 10.7337 2.41422 9.17157L9.17157 2.41421Z" fill="currentColor"/>
</symbol>

<symbol viewBox="-16.5 0 289 289" version="1.1" xmlns="http://www.w3.org/2000/svg" xmlns:xlink="http://www.w3.org/1999/xlink" preserveAspectRatio="xMidYMid" id="nodejs">
  <g>
    <path d="M127.999999,288.463771 C124.024844,288.463771 120.314699,287.403728 116.869564,285.548656 L81.6231884,264.612838 C76.32298,261.697724 78.9730854,260.637682 80.5631458,260.107661 C87.7184259,257.72257 89.0434775,257.192547 96.4637688,252.952381 C97.2587979,252.422361 98.3188405,252.687372 99.1138718,253.217392 L126.144927,269.383024 C127.20497,269.913045 128.530021,269.913045 129.325053,269.383024 L235.064182,208.165634 C236.124225,207.635611 236.654245,206.575571 236.654245,205.250519 L236.654245,83.0807467 C236.654245,81.7556929 236.124225,80.6956526 235.064182,80.1656324 L129.325053,19.2132506 C128.26501,18.6832305 126.939959,18.6832305 126.144927,19.2132506 L20.4057954,80.1656324 C19.3457551,80.6956526 18.8157349,82.0207041 18.8157349,83.0807467 L18.8157349,205.250519 C18.8157349,206.31056 19.3457551,207.635611 20.4057954,208.165634 L49.2919247,224.861286 C64.9275364,232.811595 74.7329196,223.536234 74.7329196,214.260871 L74.7329196,93.681159 C74.7329196,92.0910985 76.0579711,90.5010358 77.9130428,90.5010358 L91.4285716,90.5010358 C93.0186343,90.5010358 94.6086948,91.8260873 94.6086948,93.681159 L94.6086948,214.260871 C94.6086948,235.196689 83.2132512,247.387164 63.3374737,247.387164 C57.2422362,247.387164 52.4720502,247.387164 38.9565214,240.761906 L11.1304347,224.861286 C4.24016581,220.886129 5.68434189e-14,213.46584 5.68434189e-14,205.515528 L5.68434189e-14,83.3457557 C5.68434189e-14,75.3954465 4.24016581,67.9751552 11.1304347,64.0000006 L116.869564,2.78260752 C123.494824,-0.927535841 132.505176,-0.927535841 139.130436,2.78260752 L244.869565,64.0000006 C251.759834,67.9751552 256,75.3954465 256,83.3457557 L256,205.515528 C256,213.46584 251.759834,220.886129 244.869565,224.861286 L139.130436,286.078676 C135.685299,287.668739 131.710145,288.463771 127.999999,288.463771 L127.999999,288.463771 Z M160.596274,204.455488 C114.219461,204.455488 104.679089,183.254659 104.679089,165.233955 C104.679089,163.643893 106.004141,162.053832 107.859212,162.053832 L121.639752,162.053832 C123.229813,162.053832 124.554864,163.113872 124.554864,164.703935 C126.674947,178.749484 132.770187,185.639753 160.861283,185.639753 C183.122154,185.639753 192.662526,180.604556 192.662526,168.67909 C192.662526,161.788821 190.012423,156.753624 155.296065,153.308489 C126.409938,150.393375 108.389235,144.033126 108.389235,120.977226 C108.389235,99.5113875 126.409938,86.7908901 156.621119,86.7908901 C190.542443,86.7908901 207.238095,98.4513472 209.358178,123.89234 C209.358178,124.687371 209.093167,125.482403 208.563147,126.277434 C208.033127,126.807454 207.238095,127.337474 206.443064,127.337474 L192.662526,127.337474 C191.337475,127.337474 190.012423,126.277434 189.747412,124.952382 C186.567289,110.376813 178.351966,105.606625 156.621119,105.606625 C132.240165,105.606625 129.325053,114.086957 129.325053,120.447205 C129.325053,128.132506 132.770187,130.5176 165.631471,134.757766 C198.227744,138.997931 213.598344,145.093169 213.598344,167.884058 C213.333333,191.20497 194.252589,204.455488 160.596274,204.455488 L160.596274,204.455488 Z" fill="#539E43">
    </path>
  </g>
</symbol>

<symbol  viewBox="0 0 15 15" fill="none" xmlns="http://www.w3.org/2000/svg" id="tailwind">
  <path  d="M7.50006 2.5C6.47409 2.5 5.59203 2.77691 4.89966 3.37037C4.21227 3.95956 3.76259 4.81729 3.51314 5.88638C3.45869 6.1197 3.57742 6.35885 3.79619 6.45654C4.01496 6.55423 4.27228 6.483 4.40967 6.28672C4.7263 5.8344 5.04244 5.56261 5.3462 5.42313C5.64038 5.28805 5.95748 5.26068 6.32069 5.35797C6.68723 5.45615 6.97097 5.74369 7.41643 6.22816L7.43082 6.24382C7.76661 6.60905 8.17623 7.0546 8.73649 7.40028C9.31785 7.75898 10.0413 7.99999 11.0001 7.99999C12.026 7.99999 12.9081 7.72307 13.6005 7.12962C14.2878 6.54043 14.7375 5.6827 14.987 4.61361C15.0414 4.38029 14.9227 4.14114 14.7039 4.04345C14.4852 3.94576 14.2278 4.01698 14.0904 4.21326C13.7738 4.66559 13.4577 4.93737 13.1539 5.07686C12.8597 5.21194 12.5426 5.23931 12.1794 5.14202C11.8129 5.04384 11.5291 4.7563 11.0837 4.27182L11.0693 4.25616C10.7335 3.89093 10.3239 3.44538 9.76362 3.09971C9.18227 2.74101 8.45883 2.5 7.50006 2.5Z" fill="currentColor"/>
  <path  d="M4.00006 6.99999C2.97409 6.99999 2.09203 7.2769 1.39966 7.87036C0.712271 8.45955 0.262592 9.31727 0.0131365 10.3864C-0.0413057 10.6197 0.0774162 10.8588 0.296186 10.9565C0.514956 11.0542 0.772276 10.983 0.909673 10.7867C1.2263 10.3344 1.54244 10.0626 1.8462 9.92312C2.14038 9.78804 2.45747 9.76067 2.82069 9.85796C3.18723 9.95614 3.47097 10.2437 3.91643 10.7282L3.93082 10.7438C4.2666 11.109 4.67624 11.5546 5.23649 11.9003C5.81785 12.259 6.54128 12.5 7.50006 12.5C8.52602 12.5 9.40808 12.2231 10.1005 11.6296C10.7878 11.0404 11.2375 10.1827 11.487 9.1136C11.5414 8.88027 11.4227 8.64113 11.2039 8.54343C10.9852 8.44574 10.7278 8.51697 10.5904 8.71325C10.2738 9.16558 9.95768 9.43736 9.65391 9.57684C9.35974 9.71192 9.04264 9.7393 8.67942 9.64201C8.31289 9.54383 8.02915 9.25628 7.58369 8.77181L7.56929 8.75615C7.23351 8.39092 6.82388 7.94537 6.26362 7.59969C5.68227 7.241 4.95883 6.99999 4.00006 6.99999Z" fill="currentColor"/>
</symbol>

<symbol fill="currentColor" viewBox="0 0 24 24" xmlns="http://www.w3.org/2000/svg" id="react">
  <rect width="24" height="24" fill="none"/>
  <path d="M12,10.11A1.87,1.87,0,1,1,10.13,12,1.88,1.88,0,0,1,12,10.11M7.37,20c.63.38,2-.2,3.6-1.7a24.22,24.22,0,0,1-1.51-1.9A22.7,22.7,0,0,1,7.06,16c-.51,2.14-.32,3.61.31,4m.71-5.74-.29-.51a7.91,7.91,0,0,0-.29.86c.27.06.57.11.88.16l-.3-.51m6.54-.76.81-1.5-.81-1.5c-.3-.53-.62-1-.91-1.47C13.17,9,12.6,9,12,9s-1.17,0-1.71,0c-.29.47-.61.94-.91,1.47L8.57,12l.81,1.5c.3.53.62,1,.91,1.47.54,0,1.11,0,1.71,0s1.17,0,1.71,0c.29-.47.61-.94.91-1.47M12,6.78c-.19.22-.39.45-.59.72h1.18c-.2-.27-.4-.5-.59-.72m0,10.44c.19-.22.39-.45.59-.72H11.41c.2.27.4.5.59.72M16.62,4c-.62-.38-2,.2-3.59,1.7a24.22,24.22,0,0,1,1.51,1.9,22.7,22.7,0,0,1,2.4.36c.51-2.14.32-3.61-.32-4m-.7,5.74.29.51a7.91,7.91,0,0,0,.29-.86c-.27-.06-.57-.11-.88-.16l.3.51m1.45-7c1.47.84,1.63,3.05,1,5.63,2.54.75,4.37,2,4.37,3.68s-1.83,2.93-4.37,3.68c.62,2.58.46,4.79-1,5.63s-3.45-.12-5.37-1.95c-1.92,1.83-3.91,2.79-5.38,1.95s-1.62-3-1-5.63c-2.54-.75-4.37-2-4.37-3.68S3.08,9.07,5.62,8.32c-.62-2.58-.46-4.79,1-5.63s3.46.12,5.38,1.95c1.92-1.83,3.91-2.79,5.37-1.95M17.08,12A22.51,22.51,0,0,1,18,14.26c2.1-.63,3.28-1.53,3.28-2.26S20.07,10.37,18,9.74A22.51,22.51,0,0,1,17.08,12M6.92,12A22.51,22.51,0,0,1,6,9.74c-2.1.63-3.28,1.53-3.28,2.26S3.93,13.63,6,14.26A22.51,22.51,0,0,1,6.92,12m9,2.26-.3.51c.31,0,.61-.1.88-.16a7.91,7.91,0,0,0-.29-.86l-.29.51M13,18.3c1.59,1.5,3,2.08,3.59,1.7s.83-1.82.32-4a22.7,22.7,0,0,1-2.4.36A24.22,24.22,0,0,1,13,18.3M8.08,9.74l.3-.51c-.31,0-.61.1-.88.16a7.91,7.91,0,0,0,.29.86l.29-.51M11,5.7C9.38,4.2,8,3.62,7.37,4s-.82,1.82-.31,4a22.7,22.7,0,0,1,2.4-.36A24.22,24.22,0,0,1,11,5.7Z"/>
</symbol>

<symbol viewBox="0 0 24 24" fill="none" xmlns="http://www.w3.org/2000/svg" id="javascript">
  <path d="M13 6C13 5.44772 13.4477 5 14 5H17C17.5523 5 18 5.44772 18 6C18 6.55228 17.5523 7 17 7H15.2C15.0895 7 15 7.08954 15 7.2V8.8C15 8.91046 15.0895 9 15.2 9H17C17.5523 9 18 9.44772 18 10V13C18 13.2652 17.8946 13.5196 17.7071 13.7071L14.7071 16.7071C14.3166 17.0976 13.6834 17.0976 13.2929 16.7071C12.9024 16.3166 12.9024 15.6834 13.2929 15.2929L15.9414 12.6444C15.9789 12.6069 16 12.556 16 12.5029V11.2C16 11.0895 15.9105 11 15.8 11H14C13.4477 11 13 10.5523 13 10V6Z" fill="currentColor"/>
  <path d="M11 6C11 5.44772 10.5523 5 10 5C9.44771 5 9 5.44772 9 6V13.1029C9 13.2811 8.78457 13.3704 8.65858 13.2444L8.05858 12.6444C8.02107 12.6069 8 12.556 8 12.5029V12C8 11.4477 7.55228 11 7 11C6.44771 11 6 11.4477 6 12V13C6 13.2652 6.10536 13.5196 6.29289 13.7071L9.29289 16.7071C9.57889 16.9931 10.009 17.0787 10.3827 16.9239C10.7564 16.7691 11 16.4045 11 16V6Z" fill="currentColor"/>
  <path fill-rule="evenodd" clip-rule="evenodd" d="M1.33617 4.42426C1.07798 2.61696 2.48037 1 4.30602 1H19.694C21.5196 1 22.922 2.61696 22.6638 4.42426L21.0948 15.4074C20.9933 16.1178 20.6405 16.7683 20.1005 17.2409L13.9755 22.6002C12.8444 23.5899 11.1556 23.5899 10.0245 22.6002L3.89952 17.2409C3.35945 16.7683 3.00667 16.1178 2.90519 15.4074L1.33617 4.42426ZM4.30602 3C3.69747 3 3.23001 3.53899 3.31607 4.14142L4.88509 15.1245C4.91892 15.3613 5.03651 15.5782 5.21653 15.7357L11.3415 21.095C11.7185 21.4249 12.2815 21.4249 12.6585 21.095L18.7835 15.7357C18.9635 15.5782 19.0811 15.3613 19.1149 15.1245L20.6839 4.14142C20.77 3.53899 20.3025 3 19.694 3H4.30602Z" fill="currentColor"/>
</symbol>

<symbol fill="currentColor" version="1.1" xmlns="http://www.w3.org/2000/svg" xmlns:xlink="http://www.w3.org/1999/xlink" viewBox="0 0 512 512" enable-background="new 0 0 512 512" xml:space="preserve" id="css">
  <path display="inline" d="M483.111,0.501l-42.59,461.314l-184.524,49.684L71.47,461.815L28.889,0.501H483.111z M397.29,94.302
  H255.831H111.866l6.885,55.708h137.08h7.7l-7.7,3.205l-132.07,55.006l4.38,54.453l127.69,0.414l68.438,0.217l-4.381,72.606
  l-64.058,18.035v-0.057l-0.525,0.146l-61.864-15.617l-3.754-45.07h-0.205H132.1h-0.202l7.511,87.007l116.423,34.429v-0.062
  l0.21,0.062l115.799-33.802l15.021-172.761h-131.03h-0.323l0.323-0.14l135.83-58.071L397.29,94.302z">
  </path>
</symbol>

<symbol viewBox="-1 0 20 20" version="1.1" xmlns="http://www.w3.org/2000/svg" xmlns:xlink="http://www.w3.org/1999/xlink" id="html">
  <g id="Dribbble-Light-Preview" transform="translate(-61.000000, -7639.000000)" fill="currentColor">
    <g id="icons" transform="translate(56.000000, 160.000000)">
      <path d="M19.4350881,7485 L19.4279481,7485 L10.8119794,7485 L11.0180201,7487 L19.2300674,7487 C19.109707,7488.752 18.7455658,7492.464 18.6119454,7494.153 L13.99949,7495.451 L13.99949,7495.455 L13.98929,7495.46 L9.37377458,7493.836 L9.05757353,7490 L11.3199411,7490 L11.4800816,7492.063 L13.99337,7493 L13.99949,7493 L16.5086984,7492.1 L16.7667592,7489 L8.95659319,7489 C8.91885306,7488.599 8.43333144,7483.392 8.34867116,7483 L19.6370488,7483 C19.5738086,7483.66 19.5095484,7484.338 19.4350881,7485 L19.4350881,7485 Z M5,7479 L6.63812546,7497.148 L13.98929,7499 L21.3598345,7497.111 L23,7479 L5,7479 Z" id="html-[#124]">
      </path>
    </g>
  </g>
</symbol>

</svg>